<?xml version="1.0" encoding="UTF-8"?>
<svg id="Capa_2" data-name="Capa 2" xmlns="http://www.w3.org/2000/svg" viewBox="0 0 15.94 15.54">
  <defs>
    <style>
      .cls-1 {
        stroke: #89c4d3;
        stroke-miterlimit: 10;
        stroke-width: .19px;
      }

      .cls-1, .cls-2 {
        fill: #89c4d3;
      }

      .cls-3 {
        fill: #c6e1e5;
      }

      .cls-4 {
        fill: #8ac5d3;
      }
    </style>
  </defs>
  <path class="cls-2" d="m4.99,9.61c-.02.37-.37.98-.81.78-.25-.11-.43-.37-.6-.57-.2-.24-.42-.49-.7-.64-.63-.34-1.36-.15-1.67.51-.15.33-.18.68-.18,1.03s.07.59.37.81c.2.14.5.03.62-.16.13-.23.04-.47-.16-.62.01.01.1.14.08.14,0,0,0-.17,0-.17,0-.14,0-.28.02-.41.03-.15.1-.39.24-.41.2-.03.4.17.53.31.19.21.35.44.56.64.48.46,1.12.64,1.72.29.54-.31.84-.92.87-1.53.01-.24-.22-.45-.45-.45-.25,0-.44.21-.45.45h0Z"/>
  <path class="cls-2" d="m9.92,9.33c.11.56.25,1.19.69,1.59.5.47,1.5.6,1.92-.04.15-.23.23-.48.42-.67.16-.16.38-.26.6-.2s.31.24.36.44c.03.12.05.24.05.37,0,.08,0,.17,0,.25,0,.05-.08.17,0,.07-.15.19-.19.45,0,.64.16.16.48.19.64,0,.43-.53.34-1.49-.02-2.04-.42-.65-1.28-.81-1.92-.41-.29.18-.53.45-.7.75-.04.08-.13.33-.19.36-.02.01-.23,0-.3-.03-.23-.05-.35-.23-.44-.45-.11-.25-.17-.56-.22-.84-.05-.24-.33-.37-.55-.31-.25.07-.36.31-.31.55h0Z"/>
  <path class="cls-2" d="m9.23,10.18c.1.13.3.36.23.53s-.32.33-.43.49c-.34.46-.35,1.07,0,1.53.21.28.83.57.72.99-.05.19-.22.37-.33.54-.13.19-.27.36-.43.52-.41.41.22,1.04.64.64.2-.2.38-.42.54-.65.14-.21.3-.42.4-.66.24-.61-.02-1.19-.49-1.6-.16-.13-.4-.28-.41-.51-.01-.24.23-.4.37-.56.47-.53.38-1.17-.03-1.7-.15-.19-.39-.3-.62-.16-.19.11-.31.42-.16.62h0Z"/>
  <path class="cls-2" d="m7.55,10.24c.06.17.16.41.1.6-.06.18-.27.3-.39.44-.36.4-.44.88-.21,1.37.1.21.26.4.44.55.13.12.38.22.46.39.19.37-.4.83-.61,1.04-.42.4.22,1.04.64.64s.84-.84.9-1.44c.02-.25-.04-.52-.18-.73-.16-.25-.42-.38-.63-.58-.11-.11-.3-.3-.26-.47.04-.15.26-.29.36-.4.45-.48.44-1.03.24-1.63-.18-.55-1.05-.31-.87.24h0Z"/>
  <path class="cls-2" d="m5.69,10.08c.1.17.26.42.24.63-.02.18-.23.3-.34.43-.35.42-.45.98-.21,1.47.19.39.57.61.82.94.3.39-.28.82-.54,1.06-.43.39.21,1.03.64.64s.92-.89.9-1.53c-.02-.59-.49-.92-.86-1.31-.13-.14-.23-.3-.18-.49.06-.23.32-.38.45-.57.41-.55.16-1.2-.14-1.73-.28-.5-1.06-.05-.78.45h0Z"/>
  <g>
    <path class="cls-4" d="m.65,7.22c-.26-.49-.24-1.1-.07-1.64s.48-.99.79-1.44c.5-.73,1.03-1.45,1.7-1.99.44-.35.94-.62,1.45-.84,2.19-.98,4.77-1.26,6.88-.08.34.19.65.41.97.64.81.6,1.58,1.27,2.17,2.12s.97,1.91.91,2.98c0,.13-.02.26-.07.38-.16.37-.61.46-.98.42-.61-.05-1.19-.29-1.78-.46-1-.28-2.04-.37-3.06-.45-1.62-.13-3.26-.26-4.85.06-1.05.21-2.07.62-3.13.66-.29.01-.6-.02-.8-.25"/>
    <path class="cls-2" d="m1.06,6.98c-.58-1.32.93-3.07,1.77-3.96.97-1.02,2.35-1.58,3.69-1.88,2.83-.64,5.45.49,7.28,2.69.57.68,2.2,3.84.2,3.41-.71-.15-1.38-.43-2.09-.56s-1.39-.19-2.08-.25c-1.52-.13-3.05-.26-4.57-.06-.68.09-1.33.27-1.99.44-.52.14-1.7.6-2.16.21s-1.14.28-.67.67c.98.82,2.52.18,3.61-.11,1.59-.41,3.17-.41,4.79-.29.78.06,1.56.11,2.33.22.85.12,1.63.4,2.46.61.91.23,2.11.21,2.28-.95.38-2.64-1.95-4.89-3.97-6.16C9.68-.4,6.87-.2,4.5.81c-1.47.63-2.48,1.58-3.4,2.88C.3,4.83-.37,6.07.24,7.46c.25.56,1.06.08.82-.48h0Z"/>
  </g>
  <path class="cls-1" d="m3.13,8.56l.54.6s0,0,0,0l.47.35,1.37.76h0c.33.1.66.19.99.29l.47.09c.37.07.75.11,1.13.11h.69s.8-.2.8-.2l.75-.25.05-.02,1.22-.68.81-.58s0,0,0,0l.35-.47s0-.06-.02-.06l-.65-.16-.91-.17c-.15-.03-.31-.05-.47-.07l-1.07-.11c-.21-.02-.42-.03-.62-.03h-2.75c-.4,0-.79.04-1.18.12l-.68.14-1.27.29s-.04.04-.02.07Z"/>
  <path class="cls-3" d="m7.14.83c-.62-.19-1.31.12-1.62.68-.09.17-.12.34-.19.51-.04.1-.05.12-.15.17-.23.09-.53.02-.78.03-.36,0-.74.09-1.02.34s-.34.57-.42.9c-.14.55-.56.9-1.05,1.16-.57.3-.07,1.16.5.86.51-.27.98-.65,1.27-1.16.16-.27.22-.56.3-.86.07-.25.26-.24.5-.23.62.01,1.31,0,1.67-.59.13-.21.12-.51.29-.69.13-.15.29-.18.44-.13.62.19.88-.78.27-.96h0Z"/>
</svg>